# xmcd CD database file
#
# Track frame offsets:
#	150
#	12038
#	23089
#	40229
#	50052
#	64794
#	74457
#	83715
#	95845
#	107737
#	119447
#	129326
#	139563
#
# Disc length: 2051 seconds
#
# Revision: 0
# Processed by: cddbd v1.5.2PL0 Copyright (c) Steve Scherf et al.
# Submitted via: CDex 1.70beta2
#
DISCID=af08010d
DTITLE=Roy Acuff - Oh Boy Classics presents Roy Acuff
DYEAR=1900
DGENRE=Country
TTITLE0=Wa bash Cannonball
TTITLE1=The Wreck on the Highway
TTITLE2=Will the Circle Be Unbroken
TTITLE3=Fire Ball Mail
TTITLE4=The Precious Jewel
TTITLE5=I Saw the Light
TTITLE6=Freight Train Blues
TTITLE7=The Great Speckled Bird
TTITLE8=Little Moses
TTITLE9=The Great Titanic
TTITLE10=Branded Wherever I Go
TTITLE11=Back In The Country
TTITLE12=Hillbilly Fever (LIVE)
EXTD=
EXTT0=
EXTT1=
EXTT2=
EXTT3=
EXTT4=
EXTT5=
EXTT6=
EXTT7=
EXTT8=
EXTT9=
EXTT10=
EXTT11=
EXTT12=
PLAYORDER=
